<svg xmlns="http://www.w3.org/2000/svg" fill="none" viewBox="0 0 141 56" height="56" width="141">
<path fill="#FBAE35" d="M0 34.3213V54.9911C0 55.4087 0.278381 55.6871 0.695953 55.6871H140.304C140.722 55.6871 141 55.4087 141 54.9911V34.3213C141 33.9037 140.722 33.6254 140.304 33.6254H0.695953C0.347976 33.6254 0 33.9037 0 34.3213Z"></path>
<path fill="#131130" d="M116.572 20.4023L114.623 5.36969C114.275 2.3075 111.631 0.00389863 108.569 0.00389863H101.052C99.382 0.00389863 97.7813 0.699851 96.6678 1.88297L94.9279 3.55326C93.9536 4.52759 92.2833 4.59719 91.3089 3.62285L91.2393 3.55326L89.5691 1.81338C88.3859 0.637215 86.7852 -0.0587371 85.1846 0.00389863H77.6683C74.6061 0.00389863 71.9615 2.23095 71.6135 5.29314L69.6648 20.3257C69.1081 24.223 71.8919 27.7028 75.7892 28.2596C77.9467 28.538 80.1041 27.842 81.7048 26.3109L87.4812 20.8129C87.8988 20.3953 88.5947 20.0473 89.2907 20.1169H97.0157C97.7117 20.1169 98.2685 20.3257 98.7556 20.8129L104.532 26.3109C107.385 29.0947 111.979 28.8859 114.623 26.2413C116.154 24.7798 116.92 22.4832 116.572 20.3953V20.4023ZM84.9758 13.3731H83.0967V15.2522C83.0967 16.2961 82.2616 17.1313 81.2176 17.1313C80.1737 17.1313 79.3386 16.2961 79.3386 15.2522V13.3731H77.3899C76.346 13.3731 75.5108 12.538 75.5108 11.4941C75.5108 10.4501 76.346 9.615 77.3899 9.615H79.269V7.73593C79.269 6.692 80.1041 5.85686 81.148 5.85686C82.192 5.85686 83.0271 6.692 83.0271 7.73593V9.615H84.9062C85.9501 9.615 86.7852 10.4501 86.7852 11.4941C86.8548 12.6076 85.9501 13.3731 84.9758 13.3731Z" clip-rule="evenodd" fill-rule="evenodd"></path>
<path fill="#F7931F" d="M105.332 9.33663C106.369 9.33663 107.212 8.49453 107.212 7.45756C107.212 6.42059 106.369 5.57849 105.332 5.57849C104.295 5.57849 103.453 6.42059 103.453 7.45756C103.453 8.49453 104.295 9.33663 105.332 9.33663Z"></path>
<path fill="#4CC1EF" d="M105.332 17.2009C106.369 17.2009 107.212 16.3588 107.212 15.3218C107.212 14.2849 106.369 13.4427 105.332 13.4427C104.295 13.4427 103.453 14.2849 103.453 15.3218C103.453 16.3588 104.295 17.2009 105.332 17.2009Z"></path>
<path fill="#FFCC4D" d="M101.4 13.2688C102.437 13.2688 103.279 12.4267 103.279 11.3897C103.279 10.3527 102.437 9.51062 101.4 9.51062C100.363 9.51062 99.5212 10.3527 99.5212 11.3897C99.5212 12.4267 100.363 13.2688 101.4 13.2688Z"></path>
<path fill="#449AC6" d="M109.265 13.2688C110.302 13.2688 111.144 12.4267 111.144 11.3897C111.144 10.3527 110.302 9.51062 109.265 9.51062C108.228 9.51062 107.385 10.3527 107.385 11.3897C107.385 12.4267 108.228 13.2688 109.265 13.2688Z"></path>
<path fill="white" d="M25.8198 38.845C22.3401 38.845 19.6954 41.2809 19.6954 44.6214C19.6954 47.962 22.3401 50.4674 25.8198 50.4674C29.2996 50.4674 31.9442 47.962 31.9442 44.6214C31.9442 41.2809 29.2996 38.845 25.8198 38.845ZM25.8894 48.2404C24.0103 48.2404 22.4097 46.7093 22.4097 44.691C22.4097 42.6728 24.0103 41.1417 25.8894 41.1417C27.7685 41.1417 29.3692 42.7424 29.3692 44.691C29.3692 46.6397 27.7685 48.2404 25.8894 48.2404Z"></path>
<path fill="white" d="M115.737 38.845C112.257 38.845 109.613 41.2809 109.613 44.6214C109.613 47.962 112.257 50.4674 115.737 50.4674C119.217 50.4674 121.861 47.962 121.861 44.6214C121.861 41.2809 119.217 38.845 115.737 38.845ZM115.807 48.2404C113.927 48.2404 112.327 46.7093 112.327 44.691C112.327 42.6728 113.927 41.1417 115.807 41.1417C117.686 41.1417 119.286 42.7424 119.286 44.691C119.286 46.6397 117.686 48.2404 115.807 48.2404Z"></path>
<path fill="white" d="M11.2744 50.4674C7.86421 50.4674 5.28918 47.962 5.28918 44.6214C5.28918 41.2809 7.9338 38.845 11.344 38.845C13.0143 38.845 14.7541 39.6106 15.7981 40.7241L14.267 42.5336C13.5014 41.6288 12.3879 41.0025 11.2744 41.0025C9.32571 41.0025 7.79461 42.5336 7.79461 44.4822C7.79461 46.4309 9.32571 47.962 11.2744 47.962C12.3183 47.962 13.4318 47.4053 14.267 46.5701L15.7981 48.2404C14.6845 49.7019 12.9447 50.4674 11.2744 50.4674Z"></path>
<path fill="white" d="M44.4018 50.3978H36.8855V38.9146H39.4605V48.1012H44.4018V50.3978Z"></path>
<path fill="white" d="M56.7201 50.3978H49.2039V38.9146H51.7789V48.1012H56.7201V50.3978Z"></path>
<path fill="white" d="M70.4304 50.3978H61.5222V38.9146H70.2912V41.0025H64.0972V43.5079H69.6649V45.6654H64.0972V48.1708H70.4304V50.3978Z"></path>
<path fill="white" d="M80.9393 50.4674C77.5291 50.4674 74.9541 47.962 74.9541 44.6214C74.9541 41.2809 77.5987 38.845 81.0089 38.845C82.6792 38.845 84.4191 39.6106 85.463 40.7241L83.9319 42.5336C83.1663 41.6288 82.0528 41.0025 80.9393 41.0025C78.9906 41.0025 77.4595 42.5336 77.4595 44.4822C77.4595 46.4309 78.9906 47.962 80.9393 47.962C81.9832 47.962 83.0967 47.4053 83.9319 46.5701L85.463 48.2404C84.3495 49.7019 82.6096 50.4674 80.9393 50.4674Z"></path>
<path fill="white" d="M98.8252 41.0721H95.2759V50.3978H92.7008V41.0721H89.2211V38.9146H98.8252V41.0721Z"></path>
<path fill="white" d="M106.063 38.9146H103.488V50.3978H106.063V38.9146Z"></path>
<path fill="white" d="M135.641 50.3978H133.275L127.777 43.0207V50.3978H125.341V38.9146H127.707L133.205 46.2917V38.9146H135.641V50.3978Z"></path>
<path fill="#131130" d="M0 20.8199H1.67029V23.6037H8.90819V25.6219H1.73988V28.4057H0V20.8199Z"></path>
<path fill="#131130" d="M0 16.4354H3.75814V12.3292H0V10.311H9.04738V12.3292H5.49802V16.4354H9.04738V18.4536H0V16.4354Z"></path>
<path fill="#131130" d="M0 0.00390625H1.67029V5.02172H3.61895V0.637223H5.28924V4.95213H7.3075V0.00390625H9.04738V7.03999H0V0.00390625Z"></path>
<path fill="#131130" d="M26.3766 6.06565C28.6733 6.06565 31.2483 7.10958 33.1274 8.71027C33.4057 8.91906 33.8233 8.91906 34.1017 8.57108L37.3031 4.60415C37.5119 4.32577 37.5119 3.83861 37.2335 3.62982C34.3801 1.40277 30.274 0.00390625 26.3766 0.00390625C17.6076 0.00390625 11.1353 6.06565 11.1353 14.1387C11.1353 22.2118 17.4684 28.2665 25.959 28.2665C29.7172 28.2665 34.1713 26.805 37.1639 24.926C37.3727 24.7868 37.4423 24.578 37.4423 24.3692V14.4867C37.4423 14.0691 37.1639 13.7907 36.7463 13.7907H31.9442C31.5267 13.7907 31.2483 14.0691 31.2483 14.4867V20.2631C31.2483 20.5415 31.1091 20.7503 30.8307 20.8894C29.2996 21.5854 27.6989 22.003 26.4462 22.003C21.9921 22.003 18.5819 18.5928 18.5819 14.0691C18.5819 9.54542 21.9225 6.06565 26.3766 6.06565Z"></path>
<path fill="#131130" d="M126.315 5.92646H140.304C140.722 5.92646 141 5.64808 141 5.23051V0.706817C141 0.289245 140.722 0.0108643 140.304 0.0108643H119.495C119.077 0.0108643 118.799 0.289245 118.799 0.706817V27.6402C118.799 28.0578 119.077 28.3361 119.495 28.3361H140.304C140.722 28.3361 141 28.0578 141 27.6402V23.2557C141 22.8381 140.722 22.5597 140.304 22.5597H126.315C126.246 22.5597 126.176 22.4901 126.176 22.4205V17.3401C126.176 17.2705 126.246 17.2009 126.315 17.2009H138.982C139.399 17.2009 139.678 16.9225 139.678 16.5049V11.9812C139.678 11.5637 139.399 11.2853 138.982 11.2853H126.315C126.246 11.2853 126.176 11.2157 126.176 11.1461V6.06565C126.176 5.99606 126.246 5.92646 126.315 5.92646Z"></path>
<path fill="#131130" d="M69.3168 27.3618L58.46 0.428436C58.3904 0.21965 58.112 0.0108643 57.8336 0.0108643H50.5261C50.2477 0.0108643 49.9693 0.21965 49.8997 0.428436L38.4861 27.3618C38.2773 27.849 38.6253 28.3361 39.1125 28.3361H45.1673C45.4457 28.3361 45.724 28.1969 45.7936 27.9186L47.4639 23.8124C47.6031 23.5341 47.8119 23.3949 48.0903 23.3949H59.5039C59.7823 23.3949 60.0607 23.6037 60.1303 23.8124L61.7309 27.9186C61.8005 28.1969 62.0789 28.3361 62.3573 28.3361H68.6905C69.1776 28.3361 69.5256 27.849 69.3168 27.3618ZM57.4856 17.6881H50.1085C50.0389 17.6881 49.9693 17.6185 49.9693 17.4793L53.7275 7.94472C53.7971 7.80553 53.9363 7.80553 54.0059 7.94472L57.6944 17.4793C57.6944 17.5489 57.6248 17.6881 57.4856 17.6881Z"></path>
</svg>
